<?xml version="1.0" encoding="UTF-8" standalone="no"?>
<!-- Created with Inkscape (http://www.inkscape.org/) -->

<svg
   xmlns:dc="http://purl.org/dc/elements/1.1/"
   xmlns:cc="http://creativecommons.org/ns#"
   xmlns:rdf="http://www.w3.org/1999/02/22-rdf-syntax-ns#"
   xmlns:svg="http://www.w3.org/2000/svg"
   xmlns="http://www.w3.org/2000/svg"
   xmlns:sodipodi="http://sodipodi.sourceforge.net/DTD/sodipodi-0.dtd"
   xmlns:inkscape="http://www.inkscape.org/namespaces/inkscape"
   width="744.09448819"
   height="1052.3622047"
   id="svg2"
   version="1.1"
   inkscape:version="0.48.5 r10040"
   sodipodi:docname="drawing_inkscape.svg">
  <defs
     id="defs4" />
  <sodipodi:namedview
     id="base"
     pagecolor="#ffffff"
     bordercolor="#666666"
     borderopacity="1.0"
     inkscape:pageopacity="0.0"
     inkscape:pageshadow="2"
     inkscape:zoom="0.35"
     inkscape:cx="260.71429"
     inkscape:cy="405.71428"
     inkscape:document-units="px"
     inkscape:current-layer="layer1"
     showgrid="false"
     inkscape:window-width="1455"
     inkscape:window-height="1018"
     inkscape:window-x="2963"
     inkscape:window-y="200"
     inkscape:window-maximized="0" />
  <metadata
     id="metadata7">
    <rdf:RDF>
      <cc:Work
         rdf:about="">
        <dc:format>image/svg+xml</dc:format>
        <dc:type
           rdf:resource="http://purl.org/dc/dcmitype/StillImage" />
        <dc:title></dc:title>
      </cc:Work>
    </rdf:RDF>
  </metadata>
  <g
     inkscape:label="Layer 1"
     inkscape:groupmode="layer"
     id="layer1">
    <g
       id="g3472"
       transform="translate(143.8,142.26218)">
      <g
         id="Layer_2">
        <circle
           id="circle3249"
           r="5"
           cy="114.8"
           cx="241.89999"
           stroke-miterlimit="10"
           sodipodi:cx="241.89999"
           sodipodi:cy="114.8"
           sodipodi:rx="5"
           sodipodi:ry="5"
           style="fill:#ffffff;stroke:#000000;stroke-miterlimit:10"
           d="m 246.89999,114.8 c 0,2.76143 -2.23857,5 -5,5 -2.76142,0 -5,-2.23857 -5,-5 0,-2.76142 2.23858,-5 5,-5 2.76143,0 5,2.23858 5,5 z" />
        <circle
           id="circle3251"
           r="5"
           cy="114.8"
           cx="281.89999"
           stroke-miterlimit="10"
           sodipodi:cx="281.89999"
           sodipodi:cy="114.8"
           sodipodi:rx="5"
           sodipodi:ry="5"
           style="fill:#ffffff;stroke:#000000;stroke-miterlimit:10"
           d="m 286.89999,114.8 c 0,2.76143 -2.23857,5 -5,5 -2.76142,0 -5,-2.23857 -5,-5 0,-2.76142 2.23858,-5 5,-5 2.76143,0 5,2.23858 5,5 z" />
        <circle
           id="circle3253"
           r="5"
           cy="114.8"
           cx="202.8"
           stroke-miterlimit="10"
           sodipodi:cx="202.8"
           sodipodi:cy="114.8"
           sodipodi:rx="5"
           sodipodi:ry="5"
           style="fill:#ffffff;stroke:#000000;stroke-miterlimit:10"
           d="m 207.8,114.8 c 0,2.76143 -2.23857,5 -5,5 -2.76142,0 -5,-2.23857 -5,-5 0,-2.76142 2.23858,-5 5,-5 2.76143,0 5,2.23858 5,5 z" />
        <circle
           id="circle3255"
           r="5"
           cy="124.8"
           cx="162.8"
           stroke-miterlimit="10"
           sodipodi:cx="162.8"
           sodipodi:cy="124.8"
           sodipodi:rx="5"
           sodipodi:ry="5"
           style="fill:#ffffff;stroke:#000000;stroke-miterlimit:10"
           d="m 167.8,124.8 c 0,2.76143 -2.23857,5 -5,5 -2.76142,0 -5,-2.23857 -5,-5 0,-2.76142 2.23858,-5 5,-5 2.76143,0 5,2.23858 5,5 z" />
        <circle
           id="circle3257"
           r="5"
           cy="144.8"
           cx="182.8"
           stroke-miterlimit="10"
           sodipodi:cx="182.8"
           sodipodi:cy="144.8"
           sodipodi:rx="5"
           sodipodi:ry="5"
           style="fill:#ffffff;stroke:#000000;stroke-miterlimit:10"
           d="m 187.8,144.8 c 0,2.76143 -2.23857,5 -5,5 -2.76142,0 -5,-2.23857 -5,-5 0,-2.76142 2.23858,-5 5,-5 2.76143,0 5,2.23858 5,5 z" />
        <circle
           id="circle3259"
           r="5"
           cy="140.8"
           cx="220.8"
           stroke-miterlimit="10"
           sodipodi:cx="220.8"
           sodipodi:cy="140.8"
           sodipodi:rx="5"
           sodipodi:ry="5"
           style="fill:#8dc63f;stroke:#000000;stroke-miterlimit:10"
           d="m 225.8,140.8 c 0,2.76143 -2.23857,5 -5,5 -2.76142,0 -5,-2.23857 -5,-5 0,-2.76142 2.23858,-5 5,-5 2.76143,0 5,2.23858 5,5 z" />
        <circle
           id="circle3261"
           r="5"
           cy="140.8"
           cx="260.89999"
           stroke-miterlimit="10"
           sodipodi:cx="260.89999"
           sodipodi:cy="140.8"
           sodipodi:rx="5"
           sodipodi:ry="5"
           style="fill:#ffffff;stroke:#000000;stroke-miterlimit:10"
           d="m 265.89999,140.8 c 0,2.76143 -2.23857,5 -5,5 -2.76142,0 -5,-2.23857 -5,-5 0,-2.76142 2.23858,-5 5,-5 2.76143,0 5,2.23858 5,5 z" />
        <circle
           id="circle3263"
           r="5.1999998"
           cy="90.599998"
           cx="263.10001"
           stroke-miterlimit="10"
           sodipodi:cx="263.10001"
           sodipodi:cy="90.599998"
           sodipodi:rx="5.1999998"
           sodipodi:ry="5.1999998"
           style="fill:#8dc63f;stroke:#000000;stroke-width:1.04589999;stroke-miterlimit:10"
           d="m 268.30001,90.599998 c 0,2.871881 -2.32812,5.2 -5.2,5.2 -2.87188,0 -5.2,-2.328119 -5.2,-5.2 0,-2.87188 2.32812,-5.199999 5.2,-5.199999 2.87188,0 5.2,2.328119 5.2,5.199999 z" />
        <circle
           id="circle3265"
           r="5"
           cy="88.800003"
           cx="220.8"
           stroke-miterlimit="10"
           sodipodi:cx="220.8"
           sodipodi:cy="88.800003"
           sodipodi:rx="5"
           sodipodi:ry="5"
           style="fill:#ffffff;stroke:#000000;stroke-miterlimit:10"
           d="m 225.8,88.800003 c 0,2.761424 -2.23857,5 -5,5 -2.76142,0 -5,-2.238576 -5,-5 0,-2.761424 2.23858,-5 5,-5 2.76143,0 5,2.238576 5,5 z" />
        <circle
           id="circle3267"
           r="5"
           cy="90.800003"
           cx="180.8"
           stroke-miterlimit="10"
           sodipodi:cx="180.8"
           sodipodi:cy="90.800003"
           sodipodi:rx="5"
           sodipodi:ry="5"
           style="fill:#ffffff;stroke:#000000;stroke-miterlimit:10"
           d="m 185.8,90.800003 c 0,2.761424 -2.23857,5 -5,5 -2.76142,0 -5,-2.238576 -5,-5 0,-2.761424 2.23858,-5 5,-5 2.76143,0 5,2.238576 5,5 z" />
        <circle
           id="circle3269"
           r="5"
           cy="137"
           cx="123.9"
           stroke-miterlimit="10"
           sodipodi:cx="123.9"
           sodipodi:cy="137"
           sodipodi:rx="5"
           sodipodi:ry="5"
           style="fill:#ffffff;stroke:#000000;stroke-miterlimit:10"
           d="m 128.9,137 c 0,2.76142 -2.23857,5 -5,5 -2.76142,0 -5,-2.23858 -5,-5 0,-2.76142 2.23858,-5 5,-5 2.76143,0 5,2.23858 5,5 z" />
        <circle
           id="circle3271"
           r="5"
           cy="148.7"
           cx="86.599998"
           stroke-miterlimit="10"
           sodipodi:cx="86.599998"
           sodipodi:cy="148.7"
           sodipodi:rx="5"
           sodipodi:ry="5"
           style="fill:#ffffff;stroke:#000000;stroke-miterlimit:10"
           d="m 91.599998,148.7 c 0,2.76142 -2.238576,5 -5,5 -2.761423,0 -5,-2.23858 -5,-5 0,-2.76143 2.238577,-5 5,-5 2.761424,0 5,2.23857 5,5 z" />
        <circle
           id="circle3273"
           r="5"
           cy="168"
           cx="44.700001"
           stroke-miterlimit="10"
           sodipodi:cx="44.700001"
           sodipodi:cy="168"
           sodipodi:rx="5"
           sodipodi:ry="5"
           style="fill:#8dc63f;stroke:#000000;stroke-miterlimit:10"
           d="m 49.700001,168 c 0,2.76142 -2.238576,5 -5,5 -2.761424,0 -5,-2.23858 -5,-5 0,-2.76142 2.238576,-5 5,-5 2.761424,0 5,2.23858 5,5 z" />
        <circle
           id="circle3275"
           r="5"
           cy="180.10001"
           cx="73.5"
           stroke-miterlimit="10"
           sodipodi:cx="73.5"
           sodipodi:cy="180.10001"
           sodipodi:rx="5"
           sodipodi:ry="5"
           style="fill:#ffffff;stroke:#000000;stroke-miterlimit:10"
           d="m 78.5,180.10001 c 0,2.76142 -2.238576,5 -5,5 -2.761424,0 -5,-2.23858 -5,-5 0,-2.76143 2.238576,-5 5,-5 2.761424,0 5,2.23857 5,5 z" />
        <circle
           id="circle3277"
           r="5"
           cy="164.10001"
           cx="111.6"
           stroke-miterlimit="10"
           sodipodi:cx="111.6"
           sodipodi:cy="164.10001"
           sodipodi:rx="5"
           sodipodi:ry="5"
           style="fill:#8dc63f;stroke:#000000;stroke-miterlimit:10"
           d="m 116.6,164.10001 c 0,2.76142 -2.23858,5 -5,5 -2.76143,0 -5,-2.23858 -5,-5 0,-2.76143 2.23857,-5 5,-5 2.76142,0 5,2.23857 5,5 z" />
        <circle
           id="circle3279"
           r="5"
           cy="151.10001"
           cx="149.8"
           stroke-miterlimit="10"
           sodipodi:cx="149.8"
           sodipodi:cy="151.10001"
           sodipodi:rx="5"
           sodipodi:ry="5"
           style="fill:#ffffff;stroke:#000000;stroke-miterlimit:10"
           d="m 154.8,151.10001 c 0,2.76142 -2.23857,5 -5,5 -2.76142,0 -5,-2.23858 -5,-5 0,-2.76143 2.23858,-5 5,-5 2.76143,0 5,2.23857 5,5 z" />
        <circle
           id="circle3281"
           r="5"
           cy="106.4"
           cx="134.2"
           stroke-miterlimit="10"
           sodipodi:cx="134.2"
           sodipodi:cy="106.4"
           sodipodi:rx="5"
           sodipodi:ry="5"
           style="fill:#8dc63f;stroke:#000000;stroke-miterlimit:10"
           d="m 139.2,106.4 c 0,2.76143 -2.23858,5 -5,5 -2.76143,0 -5,-2.23857 -5,-5 0,-2.76142 2.23857,-5 5,-5 2.76142,0 5,2.23858 5,5 z" />
        <circle
           id="circle3283"
           r="5"
           cy="118.5"
           cx="96"
           stroke-miterlimit="10"
           sodipodi:cx="96"
           sodipodi:cy="118.5"
           sodipodi:rx="5"
           sodipodi:ry="5"
           style="fill:#ffffff;stroke:#000000;stroke-miterlimit:10"
           d="m 101,118.5 c 0,2.76142 -2.238576,5 -5,5 -2.761424,0 -5,-2.23858 -5,-5 0,-2.76142 2.238576,-5 5,-5 2.761424,0 5,2.23858 5,5 z" />
        <circle
           id="circle3285"
           r="5"
           cy="132.39999"
           cx="58.400002"
           stroke-miterlimit="10"
           sodipodi:cx="58.400002"
           sodipodi:cy="132.39999"
           sodipodi:rx="5"
           sodipodi:ry="5"
           style="fill:#8dc63f;stroke:#000000;stroke-miterlimit:10"
           d="m 63.400002,132.39999 c 0,2.76143 -2.238577,5 -5,5 -2.761424,0 -5,-2.23857 -5,-5 0,-2.76142 2.238576,-5 5,-5 2.761423,0 5,2.23858 5,5 z" />
        <circle
           id="circle3287"
           r="5"
           cy="198.7"
           cx="44.700001"
           stroke-miterlimit="10"
           sodipodi:cx="44.700001"
           sodipodi:cy="198.7"
           sodipodi:rx="5"
           sodipodi:ry="5"
           style="fill:#ffffff;stroke:#000000;stroke-miterlimit:10"
           d="m 49.700001,198.7 c 0,2.76142 -2.238576,5 -5,5 -2.761424,0 -5,-2.23858 -5,-5 0,-2.76143 2.238576,-5 5,-5 2.761424,0 5,2.23857 5,5 z" />
        <circle
           id="circle3289"
           r="5"
           cy="202.7"
           cx="8.6999998"
           stroke-miterlimit="10"
           sodipodi:cx="8.6999998"
           sodipodi:cy="202.7"
           sodipodi:rx="5"
           sodipodi:ry="5"
           style="fill:#ffffff;stroke:#000000;stroke-miterlimit:10"
           d="m 13.7,202.7 c 0,2.76142 -2.238576,5 -5.0000002,5 -2.7614237,0 -5,-2.23858 -5,-5 0,-2.76143 2.2385763,-5 5,-5 2.7614242,0 5.0000002,2.23857 5.0000002,5 z" />
        <circle
           id="circle3291"
           r="5"
           cy="177"
           cx="427.79999"
           stroke-miterlimit="10"
           sodipodi:cx="427.79999"
           sodipodi:cy="177"
           sodipodi:rx="5"
           sodipodi:ry="5"
           style="fill:#ffffff;stroke:#000000;stroke-miterlimit:10"
           d="m 432.79999,177 c 0,2.76142 -2.23858,5 -5,5 -2.76143,0 -5,-2.23858 -5,-5 0,-2.76142 2.23857,-5 5,-5 2.76142,0 5,2.23858 5,5 z" />
        <circle
           id="circle3293"
           r="5"
           cy="153.5"
           cx="395.29999"
           stroke-miterlimit="10"
           sodipodi:cx="395.29999"
           sodipodi:cy="153.5"
           sodipodi:rx="5"
           sodipodi:ry="5"
           style="fill:#8dc63f;stroke:#000000;stroke-miterlimit:10"
           d="m 400.29999,153.5 c 0,2.76142 -2.23858,5 -5,5 -2.76143,0 -5,-2.23858 -5,-5 0,-2.76142 2.23857,-5 5,-5 2.76142,0 5,2.23858 5,5 z" />
        <circle
           id="circle3295"
           r="5"
           cy="185.2"
           cx="394.70001"
           stroke-miterlimit="10"
           sodipodi:cx="394.70001"
           sodipodi:cy="185.2"
           sodipodi:rx="5"
           sodipodi:ry="5"
           style="fill:#8dc63f;stroke:#000000;stroke-miterlimit:10"
           d="m 399.70001,185.2 c 0,2.76142 -2.23857,5 -5,5 -2.76142,0 -5,-2.23858 -5,-5 0,-2.76143 2.23858,-5 5,-5 2.76143,0 5,2.23857 5,5 z" />
        <circle
           id="circle3297"
           r="5"
           cy="208.60001"
           cx="427.10001"
           stroke-miterlimit="10"
           sodipodi:cx="427.10001"
           sodipodi:cy="208.60001"
           sodipodi:rx="5"
           sodipodi:ry="5"
           style="fill:#ffffff;stroke:#000000;stroke-miterlimit:10"
           d="m 432.10001,208.60001 c 0,2.76142 -2.23858,5 -5,5 -2.76143,0 -5,-2.23858 -5,-5 0,-2.76143 2.23857,-5 5,-5 2.76142,0 5,2.23857 5,5 z" />
        <circle
           id="circle3299"
           r="5"
           cy="167.60001"
           cx="10.1"
           stroke-miterlimit="10"
           sodipodi:cx="10.1"
           sodipodi:cy="167.60001"
           sodipodi:rx="5"
           sodipodi:ry="5"
           style="fill:#ffffff;stroke:#000000;stroke-miterlimit:10"
           d="m 15.1,167.60001 c 0,2.76142 -2.238576,5 -5,5 -2.7614234,0 -4.9999996,-2.23858 -4.9999996,-5 0,-2.76143 2.2385762,-5 4.9999996,-5 2.761424,0 5,2.23857 5,5 z" />
        <circle
           id="circle3301"
           r="5"
           cy="219.3"
           cx="22.700001"
           stroke-miterlimit="10"
           sodipodi:cx="22.700001"
           sodipodi:cy="219.3"
           sodipodi:rx="5"
           sodipodi:ry="5"
           style="fill:#8dc63f;stroke:#000000;stroke-miterlimit:10"
           d="m 27.700001,219.3 c 0,2.76143 -2.238576,5 -5,5 -2.761424,0 -5,-2.23857 -5,-5 0,-2.76142 2.238576,-5 5,-5 2.761424,0 5,2.23858 5,5 z" />
        <circle
           id="circle3303"
           r="5"
           cy="166.5"
           cx="457.60001"
           stroke-miterlimit="10"
           sodipodi:cx="457.60001"
           sodipodi:cy="166.5"
           sodipodi:rx="5"
           sodipodi:ry="5"
           style="fill:#ffffff;stroke:#000000;stroke-miterlimit:10"
           d="m 462.60001,166.5 c 0,2.76142 -2.23858,5 -5,5 -2.76143,0 -5,-2.23858 -5,-5 0,-2.76142 2.23857,-5 5,-5 2.76142,0 5,2.23858 5,5 z" />
        <circle
           id="circle3305"
           r="5"
           cy="144.60001"
           cx="424"
           stroke-miterlimit="10"
           sodipodi:cx="424"
           sodipodi:cy="144.60001"
           sodipodi:rx="5"
           sodipodi:ry="5"
           style="fill:#ffffff;stroke:#000000;stroke-miterlimit:10"
           d="m 429,144.60001 c 0,2.76142 -2.23858,5 -5,5 -2.76142,0 -5,-2.23858 -5,-5 0,-2.76143 2.23858,-5 5,-5 2.76142,0 5,2.23857 5,5 z" />
        <circle
           id="circle3307"
           r="5"
           cy="140.5"
           cx="356.70001"
           stroke-miterlimit="10"
           sodipodi:cx="356.70001"
           sodipodi:cy="140.5"
           sodipodi:rx="5"
           sodipodi:ry="5"
           style="fill:#ffffff;stroke:#000000;stroke-miterlimit:10"
           d="m 361.70001,140.5 c 0,2.76142 -2.23857,5 -5,5 -2.76142,0 -5,-2.23858 -5,-5 0,-2.76142 2.23858,-5 5,-5 2.76143,0 5,2.23858 5,5 z" />
        <circle
           id="circle3309"
           r="5"
           cy="128.2"
           cx="319.70001"
           stroke-miterlimit="10"
           sodipodi:cx="319.70001"
           sodipodi:cy="128.2"
           sodipodi:rx="5"
           sodipodi:ry="5"
           style="fill:#ffffff;stroke:#000000;stroke-miterlimit:10"
           d="m 324.70001,128.2 c 0,2.76142 -2.23857,5 -5,5 -2.76142,0 -5,-2.23858 -5,-5 0,-2.76143 2.23858,-5 5,-5 2.76143,0 5,2.23857 5,5 z" />
        <circle
           id="circle3311"
           r="5"
           cy="146"
           cx="290.5"
           stroke-miterlimit="10"
           sodipodi:cx="290.5"
           sodipodi:cy="146"
           sodipodi:rx="5"
           sodipodi:ry="5"
           style="fill:#8dc63f;stroke:#000000;stroke-miterlimit:10"
           d="m 295.5,146 c 0,2.76142 -2.23858,5 -5,5 -2.76142,0 -5,-2.23858 -5,-5 0,-2.76142 2.23858,-5 5,-5 2.76142,0 5,2.23858 5,5 z" />
        <circle
           id="circle3313"
           r="5"
           cy="158.60001"
           cx="328.5"
           stroke-miterlimit="10"
           sodipodi:cx="328.5"
           sodipodi:cy="158.60001"
           sodipodi:rx="5"
           sodipodi:ry="5"
           style="fill:#ffffff;stroke:#000000;stroke-miterlimit:10"
           d="m 333.5,158.60001 c 0,2.76142 -2.23858,5 -5,5 -2.76142,0 -5,-2.23858 -5,-5 0,-2.76143 2.23858,-5 5,-5 2.76142,0 5,2.23857 5,5 z" />
        <circle
           id="circle3315"
           r="5"
           cy="171.2"
           cx="366.5"
           stroke-miterlimit="10"
           sodipodi:cx="366.5"
           sodipodi:cy="171.2"
           sodipodi:rx="5"
           sodipodi:ry="5"
           style="fill:#ffffff;stroke:#000000;stroke-miterlimit:10"
           d="m 371.5,171.2 c 0,2.76142 -2.23858,5 -5,5 -2.76142,0 -5,-2.23858 -5,-5 0,-2.76143 2.23858,-5 5,-5 2.76142,0 5,2.23857 5,5 z" />
        <circle
           id="circle3317"
           r="5"
           cy="121.9"
           cx="382.89999"
           stroke-miterlimit="10"
           sodipodi:cx="382.89999"
           sodipodi:cy="121.9"
           sodipodi:rx="5"
           sodipodi:ry="5"
           style="fill:#ffffff;stroke:#000000;stroke-miterlimit:10"
           d="m 387.89999,121.9 c 0,2.76143 -2.23857,5 -5,5 -2.76142,0 -5,-2.23857 -5,-5 0,-2.76142 2.23858,-5 5,-5 2.76143,0 5,2.23858 5,5 z" />
        <circle
           id="circle3319"
           r="5"
           cy="109.2"
           cx="345"
           stroke-miterlimit="10"
           sodipodi:cx="345"
           sodipodi:cy="109.2"
           sodipodi:rx="5"
           sodipodi:ry="5"
           style="fill:#8dc63f;stroke:#000000;stroke-miterlimit:10"
           d="m 350,109.2 c 0,2.76142 -2.23858,5 -5,5 -2.76142,0 -5,-2.23858 -5,-5 0,-2.76143 2.23858,-5 5,-5 2.76142,0 5,2.23857 5,5 z" />
        <circle
           id="circle3321"
           r="5"
           cy="98.5"
           cx="306.29999"
           stroke-miterlimit="10"
           sodipodi:cx="306.29999"
           sodipodi:cy="98.5"
           sodipodi:rx="5"
           sodipodi:ry="5"
           style="fill:#ffffff;stroke:#000000;stroke-miterlimit:10"
           d="m 311.29999,98.5 c 0,2.76142 -2.23858,5 -5,5 -2.76143,0 -5,-2.23858 -5,-5 0,-2.761424 2.23857,-5 5,-5 2.76142,0 5,2.238576 5,5 z" />
        <circle
           id="circle3323"
           r="5"
           cy="16.5"
           cx="306.29999"
           stroke-miterlimit="10"
           sodipodi:cx="306.29999"
           sodipodi:cy="16.5"
           sodipodi:rx="5"
           sodipodi:ry="5"
           style="fill:#ffffff;stroke:#000000;stroke-miterlimit:10"
           d="m 311.29999,16.5 c 0,2.761424 -2.23858,5 -5,5 -2.76143,0 -5,-2.238576 -5,-5 0,-2.761424 2.23857,-5 5,-5 2.76142,0 5,2.238576 5,5 z" />
        <circle
           id="circle3325"
           r="5"
           cy="29.799999"
           cx="305.89999"
           stroke-miterlimit="10"
           sodipodi:cx="305.89999"
           sodipodi:cy="29.799999"
           sodipodi:rx="5"
           sodipodi:ry="5"
           style="fill:#8dc63f;stroke:#000000;stroke-miterlimit:10"
           d="m 310.89999,29.799999 c 0,2.761424 -2.23857,5 -5,5 -2.76142,0 -5,-2.238576 -5,-5 0,-2.761424 2.23858,-5 5,-5 2.76143,0 5,2.238576 5,5 z" />
      </g>
      <g
         id="Layer_1">
        <path
           id="path3328"
           d="m 91.6,36.7 c -5.9,3.8 -8.8,8 -8.8,12.5 0.1,4.8 3.1,8.9 8.8,12.5 C 76,62.5 71.8,69.8 79,83.6 65.2,76.4 57.9,80.6 57.2,96.1 53.4,90.2 49.2,87.3 44.7,87.3 40,87.4 35.8,90.4 32.2,96.1 31.5,80.5 24.3,76.4 10.4,83.6 17.6,69.8 13.4,62.6 -2.1,61.8 3.8,58 6.7,53.8 6.7,49.3 6.6,44.6 3.6,40.4 -2.1,36.8 13.5,36.1 17.6,28.9 10.4,15.1 c 13.8,7.1 21.1,3 21.8,-12.5 3.7,5.7 7.8,8.6 12.5,8.7 4.6,0.1 8.8,-2.8 12.5,-8.7 C 57.9,18 65.2,22.2 79,15 71.8,28.8 76,36.1 91.6,36.7 z M 44.7,20 c -5.3,0 -10.2,1.3 -14.7,3.9 -4.5,2.6 -8.1,6.2 -10.7,10.7 -2.6,4.5 -3.9,9.4 -3.9,14.7 0,5.3 1.3,10.2 3.9,14.7 2.6,4.5 6.1,8.1 10.7,10.7 4.5,2.6 9.4,3.9 14.7,3.9 5.3,0 10.2,-1.3 14.7,-3.9 C 63.9,72.1 67.5,68.6 70.1,64 72.7,59.5 74,54.6 74,49.3 74,44 72.7,39.1 70.1,34.6 67.5,30.1 64,26.6 59.4,23.9 55,21.3 50,20 44.7,20 z m 0,52.7 c -6.5,0 -12,-2.3 -16.6,-6.9 -4.6,-4.6 -6.9,-10.1 -6.9,-16.6 0,-6.5 2.3,-12 6.9,-16.6 4.6,-4.6 10.1,-6.9 16.6,-6.9 6.5,0 12,2.3 16.6,6.9 4.6,4.6 6.9,10.1 6.9,16.6 0,6.5 -2.3,12 -6.9,16.6 -4.6,4.6 -10.1,6.9 -16.6,6.9 z"
           inkscape:connector-curvature="0"
           style="fill:#010101" />
        <circle
           id="circle3330"
           r="312"
           cy="465.60001"
           cx="231.2"
           sodipodi:cx="231.2"
           sodipodi:cy="465.60001"
           sodipodi:rx="312"
           sodipodi:ry="312"
           style="fill:#010101"
           d="m 543.2,465.60001 c 0,172.31284 -139.68716,312 -312,312 -172.312845,0 -312.000003,-139.68716 -312.000003,-312 0,-172.31285 139.687158,-312 312.000003,-312 172.31284,0 312,139.68715 312,312 z" />
        <g
           id="g3332">
          <path
             id="path3334"
             d="m 186.5,167.2 c -8.8,0 -16,7.2 -16,16 0,8.8 7.2,16 16,16 8.8,0 16,-7.2 16,-16 0,-8.8 -7.1,-16 -16,-16 z m 0,29.4 c -7.4,0 -13.3,-6 -13.3,-13.3 0,-7.4 6,-13.3 13.3,-13.3 7.4,0 13.3,6 13.3,13.3 0.1,7.3 -5.9,13.3 -13.3,13.3 z m 5,-22 c -0.1,-0.2 -0.1,-0.3 -0.1,-0.5 -0.9,0.5 -1.8,1.1 -2.6,1.7 0.4,0.1 1.5,0.2 1.3,0.8 -0.1,0.4 -2.6,4.5 -3.3,5.8 0,0 -0.5,0.7 -0.4,0.8 -0.5,-0.5 -1,-1 -1.5,-1.5 -0.5,-0.5 -1.6,-1.1 -0.8,-1.9 -0.9,0 -1.9,0.2 -2.7,-0.1 0.4,0.8 0.6,1.7 0.8,2.6 0.2,-0.3 0.4,-0.7 0.8,-0.6 0.3,0.1 0.5,0.5 0.7,0.7 0.3,0.3 0.6,0.4 0.9,0.7 0.4,0.4 0.8,0.8 1.2,1.3 0.3,0.3 0.6,0.4 0.9,0.4 0.1,0 0.1,0 0.2,0 0.4,-0.1 0.8,-0.3 1,-0.7 1.1,-2.1 2.8,-6.1 3.3,-6.8 0.4,-0.6 0.9,-0.4 1.5,-0.1 -0.2,-0.5 -0.5,-1 -0.7,-1.5 -0.2,-0.4 -0.4,-0.7 -0.5,-1.1 z m -6.3,18 h 2.7 v 1.3 h -2.7 v -1.3 z m 0,-21.4 h 2.7 v 1.3 h -2.7 v -1.3 z m -10.7,10.7 h 2.7 v 1.3 h -2.7 v -1.3 z m 21.4,0 h 2.7 v 1.3 h -2.7 v -1.3 z"
             inkscape:connector-curvature="0"
             style="fill:#00aeef" />
        </g>
        <g
           id="g3336">
          <circle
             id="circle3338"
             r="5"
             cy="186"
             cx="131.3"
             sodipodi:cx="131.3"
             sodipodi:cy="186"
             sodipodi:rx="5"
             sodipodi:ry="5"
             style="fill:#ed1c24"
             d="m 136.3,186 c 0,2.76142 -2.23857,5 -5,5 -2.76142,0 -5,-2.23858 -5,-5 0,-2.76142 2.23858,-5 5,-5 2.76143,0 5,2.23858 5,5 z" />
          <circle
             id="circle3340"
             r="10"
             cy="186"
             cx="131.3"
             stroke-miterlimit="10"
             sodipodi:cx="131.3"
             sodipodi:cy="186"
             sodipodi:rx="10"
             sodipodi:ry="10"
             style="fill:none;stroke:#ed1c24;stroke-width:3;stroke-miterlimit:10"
             d="m 141.3,186 c 0,5.52285 -4.47715,10 -10,10 -5.52284,0 -10,-4.47715 -10,-10 0,-5.52285 4.47716,-10 10,-10 5.52285,0 10,4.47715 10,10 z" />
        </g>
        <g
           id="g3342">
          <g
             id="g3344">
            <polyline
               id="polyline3346"
               points="68,85.3 66.7,101.8 81.8,106.9      79.8,122.3 95.7,128.5 93.6,143.8 108.3,148.2 106,163.2 120.2,167.4 125.7,176    "
               stroke-miterlimit="10"
               style="fill:none;stroke:#f9ed32;stroke-width:6.54939985;stroke-miterlimit:10" />
            <g
               id="g3348">
              <path
                 id="path3350"
                 d="m 131,184.4 c -4,-3 -9.5,-6.3 -14.1,-7.6 l 8.1,-1.8 5,-6.6 c -0.6,4.7 0,11.1 1,16 z"
                 inkscape:connector-curvature="0"
                 style="fill:#f9ed32" />
            </g>
          </g>
        </g>
        <g
           id="g3352">
          <path
             id="path3354"
             d="M 290.1,80.9"
             inkscape:connector-curvature="0"
             style="fill:none" />
        </g>
        <g
           id="g3356">
          <g
             id="g3358">
            <path
               id="path3360"
               d="m 240.5,168.9 c 0,0 3,3.4 10,-9.8 7,-13.2 -6.8,-19.5 -1.7,-34.4 4.1,-12.1 10,-16.8 12.4,-23.5"
               stroke-miterlimit="10"
               inkscape:connector-curvature="0"
               style="fill:none;stroke:#ed1c24;stroke-width:3.35590005;stroke-miterlimit:10" />
            <g
               id="g3362">
              <path
                 id="path3364"
                 d="m 262.3,96.3 c 0.3,2.5 1.1,5.7 2.3,7.9 l -3.6,-2.3 -4.2,0.5 c 2,-1.5 4.1,-4 5.5,-6.1 z"
                 inkscape:connector-curvature="0"
                 style="fill:#ed1c24" />
            </g>
          </g>
        </g>
        <g
           id="g3366">
          <circle
             id="circle3368"
             r="5"
             cy="170"
             cx="242.39999"
             sodipodi:cx="242.39999"
             sodipodi:cy="170"
             sodipodi:rx="5"
             sodipodi:ry="5"
             style="fill:#ed1c24"
             d="m 247.39999,170 c 0,2.76142 -2.23857,5 -5,5 -2.76142,0 -5,-2.23858 -5,-5 0,-2.76142 2.23858,-5 5,-5 2.76143,0 5,2.23858 5,5 z" />
          <circle
             id="circle3370"
             r="10"
             cy="170"
             cx="242.39999"
             stroke-miterlimit="10"
             sodipodi:cx="242.39999"
             sodipodi:cy="170"
             sodipodi:rx="10"
             sodipodi:ry="10"
             style="fill:none;stroke:#ed1c24;stroke-width:3;stroke-miterlimit:10"
             d="m 252.39999,170 c 0,5.52285 -4.47715,10 -10,10 -5.52284,0 -10,-4.47715 -10,-10 0,-5.52285 4.47716,-10 10,-10 5.52285,0 10,4.47715 10,10 z" />
        </g>
        <g
           id="g3372">
          <circle
             id="circle3374"
             r="2.2"
             cy="90.699997"
             cx="263"
             sodipodi:cx="263"
             sodipodi:cy="90.699997"
             sodipodi:rx="2.2"
             sodipodi:ry="2.2"
             style="fill:#ed1c24"
             d="m 265.2,90.699997 c 0,1.215026 -0.98497,2.2 -2.2,2.2 -1.21503,0 -2.2,-0.984974 -2.2,-2.2 0,-1.215027 0.98497,-2.2 2.2,-2.2 1.21503,0 2.2,0.984973 2.2,2.2 z" />
          <circle
             id="circle3376"
             r="4.5"
             cy="90.699997"
             cx="263"
             stroke-miterlimit="10"
             sodipodi:cx="263"
             sodipodi:cy="90.699997"
             sodipodi:rx="4.5"
             sodipodi:ry="4.5"
             style="fill:none;stroke:#ed1c24;stroke-width:1.35000002;stroke-miterlimit:10"
             d="m 267.5,90.699997 c 0,2.485281 -2.01472,4.5 -4.5,4.5 -2.48528,0 -4.5,-2.014719 -4.5,-4.5 0,-2.485281 2.01472,-4.5 4.5,-4.5 2.48528,0 4.5,2.014719 4.5,4.5 z" />
        </g>
        <g
           id="g3378">
          <g
             id="g3380">
            <path
               id="path3382"
               d="m 266.9,92.6 c 0,0 -0.9,0.6 0.8,2.8 1.7,2.2 4.1,-0.7 6.3,1.1 1.7,1.4 2,3 2.9,3.8"
               stroke-miterlimit="10"
               inkscape:connector-curvature="0"
               style="fill:none;stroke:#ed1c24;stroke-width:0.71829998;stroke-miterlimit:10" />
            <g
               id="g3384">
              <path
                 id="path3386"
                 d="m 277.8,100.9 c -0.5,-0.1 -1.2,-0.2 -1.7,-0.2 l 0.7,-0.5 0.2,-0.9 c 0.1,0.5 0.5,1.2 0.8,1.6 z"
                 inkscape:connector-curvature="0"
                 style="fill:#ed1c24" />
            </g>
          </g>
        </g>
        <g
           id="g3388">
          <g
             id="g3390">
            <path
               id="path3392"
               d="m 267.1,88.5 c 0,0 -0.1,1 2.7,1.1 2.8,0 2,-3.7 4.8,-4.2 2.2,-0.4 3.6,0.2 4.8,0.1"
               stroke-miterlimit="10"
               inkscape:connector-curvature="0"
               style="fill:none;stroke:#ed1c24;stroke-width:0.71829998;stroke-miterlimit:10" />
            <g
               id="g3394">
              <path
                 id="path3396"
                 d="m 280.4,85.1 c -0.4,0.3 -0.9,0.8 -1.2,1.3 l 0,-0.9 -0.6,-0.7 c 0.5,0.1 1.2,0.2 1.8,0.3 z"
                 inkscape:connector-curvature="0"
                 style="fill:#ed1c24" />
            </g>
          </g>
        </g>
        <g
           id="g3398">
          <g
             id="g3400">
            <path
               id="path3402"
               d="m 262.3,86.2 c 0,0 0.9,0.5 2.1,-2 1.3,-2.5 -2.4,-3.4 -1.7,-6.1 0.5,-2.2 1.8,-3.1 2.2,-4.3"
               stroke-miterlimit="10"
               inkscape:connector-curvature="0"
               style="fill:none;stroke:#ed1c24;stroke-width:0.71829998;stroke-miterlimit:10" />
            <g
               id="g3404">
              <path
                 id="path3406"
                 d="m 265,72.8 c 0.1,0.5 0.3,1.2 0.6,1.6 l -0.8,-0.4 -0.9,0.2 c 0.4,-0.4 0.8,-1 1.1,-1.4 z"
                 inkscape:connector-curvature="0"
                 style="fill:#ed1c24" />
            </g>
          </g>
        </g>
        <g
           id="g3408">
          <g
             id="g3410">
            <path
               id="path3412"
               d="m 258.7,88.2 c 0,0 1,-0.3 -0.1,-2.9 -1.1,-2.6 -4.1,-0.3 -5.8,-2.6 -1.3,-1.8 -1.2,-3.4 -1.9,-4.4"
               stroke-miterlimit="10"
               inkscape:connector-curvature="0"
               style="fill:none;stroke:#ed1c24;stroke-width:0.71829998;stroke-miterlimit:10" />
            <g
               id="g3414">
              <path
                 id="path3416"
                 d="m 250.2,77.4 c 0.5,0.3 1.1,0.5 1.7,0.6 l -0.8,0.3 -0.4,0.8 c -0.1,-0.5 -0.3,-1.2 -0.5,-1.7 z"
                 inkscape:connector-curvature="0"
                 style="fill:#ed1c24" />
            </g>
          </g>
        </g>
        <g
           id="g3418">
          <g
             id="g3420">
            <path
               id="path3422"
               d="m 259,92.7 c 0,0 0.1,-1 -2.7,-1.1 -2.8,-0.1 -2,3.6 -4.8,4.1 -2.2,0.4 -3.6,-0.3 -4.8,-0.2"
               stroke-miterlimit="10"
               inkscape:connector-curvature="0"
               style="fill:none;stroke:#ed1c24;stroke-width:0.71829998;stroke-miterlimit:10" />
            <g
               id="g3424">
              <path
                 id="path3426"
                 d="m 245.6,95.8 c 0.4,-0.3 1,-0.8 1.2,-1.3 l -0.1,0.9 0.5,0.7 c -0.3,-0.1 -1,-0.3 -1.6,-0.3 z"
                 inkscape:connector-curvature="0"
                 style="fill:#ed1c24" />
            </g>
          </g>
        </g>
        <g
           id="g3428">
          <g
             id="g3430">
            <line
               id="line3432"
               y2="43.099998"
               x2="308.39999"
               y1="43.099998"
               x1="298.79999"
               stroke-miterlimit="10"
               style="fill:none;stroke:#ed1c24;stroke-width:3;stroke-miterlimit:10" />
            <g
               id="g3434">
              <path
                 id="path3436"
                 d="m 313.8,43.1 c -2.6,0.9 -5.7,2.6 -7.7,4.3 l 1.5,-4.3 -1.5,-4.3 c 2,1.8 5.2,3.4 7.7,4.3 z"
                 inkscape:connector-curvature="0"
                 style="fill:#ed1c24" />
            </g>
          </g>
        </g>
        <g
           id="g3438">
          <g
             id="g3440">
            <line
               id="line3442"
               y2="56.5"
               x2="308.39999"
               y1="56.5"
               x1="298.79999"
               stroke-miterlimit="10"
               style="fill:none;stroke:#f9ed32;stroke-width:3;stroke-miterlimit:10" />
            <g
               id="g3444">
              <path
                 id="path3446"
                 d="m 313.8,56.5 c -2.6,0.9 -5.7,2.6 -7.7,4.3 l 1.5,-4.3 -1.5,-4.3 c 2,1.7 5.2,3.3 7.7,4.3 z"
                 inkscape:connector-curvature="0"
                 style="fill:#f9ed32" />
            </g>
          </g>
        </g>
        <text
           id="text3448"
           font-size="12"
           transform="translate(320,19.9985)"
           style="font-size:12px;font-family:MyriadPro-Regular">Atmosphere</text>
        <text
           id="text3450"
           font-size="12"
           transform="translate(320,33.3321)"
           style="font-size:12px;font-family:MyriadPro-Regular">Greenhouse gas</text>
        <text
           id="text3452"
           font-size="12"
           transform="translate(320,46.6651)"
           style="font-size:12px;font-family:MyriadPro-Regular">Infrared radiation</text>
        <text
           id="text3454"
           font-size="12"
           transform="translate(320,59.9985)"
           style="font-size:12px;font-family:MyriadPro-Regular">Sunlight</text>
        <g
           id="g3456">
          <g
             id="g3458">
            <path
               id="path3460"
               d="m 146.2,180.8 c 20.5,-12.3 40.3,-20.9 75,-12.9"
               stroke-miterlimit="10"
               inkscape:connector-curvature="0"
               style="fill:none;stroke:#ffffff;stroke-miterlimit:10" />
            <g
               id="g3462">
              <path
                 id="path3464"
                 d="m 227,169.4 c -3,0.3 -6.9,1.2 -9.4,2.6 l 2.8,-4.2 -0.5,-5 c 1.6,2.3 4.6,4.9 7.1,6.6 z"
                 inkscape:connector-curvature="0"
                 style="fill:#ffffff" />
            </g>
          </g>
        </g>
      </g>
    </g>
  </g>
</svg>
